<?xml version="1.0" encoding="iso-8859-1"?>
<!-- Generator: Adobe Illustrator 19.0.0, SVG Export Plug-In . SVG Version: 6.00 Build 0)  -->
<svg version="1.1" id="Capa_1" xmlns="http://www.w3.org/2000/svg" xmlns:xlink="http://www.w3.org/1999/xlink" x="0px" y="0px"
	 viewBox="0 0 470 470" style="enable-background:new 0 0 470 470;" xml:space="preserve">
<g>
	<path d="M242.5,65.399V50.246H255c4.143,0,7.5-3.358,7.5-7.5s-3.357-7.5-7.5-7.5h-40c-4.143,0-7.5,3.358-7.5,7.5s3.357,7.5,7.5,7.5
		h12.5v15.153C119.372,69.36,32.623,158.544,32.623,267.623C32.623,379.214,123.409,470,235,470s202.377-90.786,202.377-202.377
		C437.377,158.544,350.628,69.36,242.5,65.399z M235,455c-103.32,0-187.377-84.057-187.377-187.377
		c0-103.32,84.057-187.377,187.377-187.377s187.377,84.057,187.377,187.377C422.377,370.943,338.32,455,235,455z"/>
	<path d="M57.545,129.345c1.529,0,3.073-0.466,4.404-1.434l116.472-84.678c1.609-1.17,2.688-2.931,2.998-4.896
		s-0.172-3.973-1.342-5.581C165.165,12.245,141.104,0,115.716,0c-16.865,0-33.01,5.257-46.69,15.203
		C51.85,27.69,40.564,46.119,37.249,67.094c-3.315,20.975,1.736,41.985,14.224,59.161C52.94,128.273,55.227,129.345,57.545,129.345z
		 M52.065,69.436c2.689-17.017,11.846-31.969,25.78-42.1C88.946,19.266,102.041,15,115.716,15c18.081,0,35.331,7.651,47.461,20.77
		L59.542,111.116C52.418,98.502,49.77,83.959,52.065,69.436z"/>
	<path d="M291.579,43.232l116.472,84.678c1.331,0.968,2.875,1.434,4.404,1.434c2.318,0,4.604-1.071,6.072-3.09
		c12.487-17.176,17.539-38.186,14.224-59.161c-3.315-20.975-14.601-39.403-31.776-51.891C387.294,5.257,371.149,0,354.284,0
		c-25.389,0-49.449,12.245-64.361,32.756c-1.17,1.608-1.652,3.616-1.342,5.581S289.97,42.063,291.579,43.232z M354.284,15
		c13.675,0,26.77,4.266,37.87,12.336c13.935,10.131,23.091,25.083,25.78,42.1c2.296,14.523-0.353,29.066-7.477,41.68L306.823,35.77
		C318.953,22.651,336.203,15,354.284,15z"/>
	<path d="M242.5,142.746v-10c0-4.142-3.357-7.5-7.5-7.5s-7.5,3.358-7.5,7.5v10c0,4.142,3.357,7.5,7.5,7.5
		S242.5,146.888,242.5,142.746z"/>
	<path d="M172.568,166.978c1.272,0,2.563-0.324,3.743-1.006c3.587-2.071,4.816-6.658,2.745-10.245l-5-8.66
		c-2.072-3.588-6.66-4.817-10.245-2.745c-3.587,2.071-4.816,6.658-2.745,10.245l5,8.66
		C167.456,165.632,169.977,166.978,172.568,166.978z"/>
	<path d="M130.604,198.689l-8.66-5c-3.59-2.073-8.175-0.843-10.245,2.745c-2.071,3.587-0.842,8.174,2.745,10.245l8.66,5
		c1.182,0.682,2.471,1.006,3.743,1.006c2.592,0,5.113-1.345,6.502-3.751C135.42,205.347,134.19,200.76,130.604,198.689z"/>
	<path d="M117.623,267.623c0-4.142-3.357-7.5-7.5-7.5h-10c-4.143,0-7.5,3.358-7.5,7.5s3.357,7.5,7.5,7.5h10
		C114.266,275.123,117.623,271.765,117.623,267.623z"/>
	<path d="M118.2,342.563c1.272,0,2.563-0.324,3.743-1.006l8.66-5c3.587-2.071,4.816-6.658,2.745-10.245s-6.659-4.816-10.245-2.745
		l-8.66,5c-3.587,2.071-4.816,6.658-2.745,10.245C113.088,341.218,115.608,342.563,118.2,342.563z"/>
	<path d="M166.066,372.02l-5,8.66c-2.071,3.587-0.842,8.174,2.745,10.245c1.182,0.682,2.471,1.006,3.743,1.006
		c2.592,0,5.113-1.345,6.502-3.751l5-8.66c2.071-3.587,0.842-8.174-2.745-10.245C172.722,367.203,168.136,368.432,166.066,372.02z"
		/>
	<path d="M227.5,392.5v10c0,4.142,3.357,7.5,7.5,7.5s7.5-3.358,7.5-7.5v-10c0-4.142-3.357-7.5-7.5-7.5S227.5,388.358,227.5,392.5z"
		/>
	<path d="M293.688,369.274c-3.587,2.071-4.816,6.658-2.745,10.245l5,8.66c1.39,2.406,3.91,3.751,6.502,3.751
		c1.272,0,2.563-0.324,3.743-1.006c3.587-2.071,4.816-6.658,2.745-10.245l-5-8.66C301.862,368.432,297.274,367.203,293.688,369.274z
		"/>
	<path d="M358.302,338.812c2.071-3.587,0.842-8.174-2.745-10.245l-8.66-5c-3.59-2.072-8.176-0.843-10.245,2.745
		c-2.071,3.587-0.842,8.174,2.745,10.245l8.66,5c1.182,0.682,2.471,1.006,3.743,1.006
		C354.392,342.563,356.913,341.218,358.302,338.812z"/>
	<path d="M352.377,267.623c0,4.142,3.357,7.5,7.5,7.5h10c4.143,0,7.5-3.358,7.5-7.5s-3.357-7.5-7.5-7.5h-10
		C355.734,260.123,352.377,263.48,352.377,267.623z"/>
	<path d="M348.057,193.689l-8.66,5c-3.587,2.071-4.816,6.658-2.745,10.245c1.39,2.406,3.91,3.751,6.502,3.751
		c1.272,0,2.563-0.324,3.743-1.006l8.66-5c3.587-2.071,4.816-6.658,2.745-10.245C356.229,192.847,351.643,191.617,348.057,193.689z"
		/>
	<path d="M297.432,166.978c2.592,0,5.113-1.345,6.502-3.751l5-8.66c2.071-3.587,0.842-8.174-2.745-10.245
		c-3.59-2.073-8.175-0.843-10.245,2.745l-5,8.66c-2.071,3.587-0.842,8.174,2.745,10.245
		C294.87,166.653,296.159,166.978,297.432,166.978z"/>
	<path d="M337.377,267.623c0-4.142-3.357-7.5-7.5-7.5H256.21c-1.087-3.063-2.819-5.822-5.033-8.115
		c-0.089-0.099-0.172-0.2-0.267-0.295l-63.553-63.553c-4.25-4.25-9.9-6.59-15.91-6.59s-11.66,2.341-15.91,6.59
		c-8.771,8.773-8.771,23.047,0,31.82l56.963,56.963V322.5c0,12.407,10.094,22.5,22.5,22.5s22.5-10.093,22.5-22.5v-47.377h72.377
		C334.02,275.123,337.377,271.765,337.377,267.623z M227.5,267.623c0-4.136,3.364-7.5,7.5-7.5s7.5,3.364,7.5,7.5s-3.364,7.5-7.5,7.5
		S227.5,271.758,227.5,267.623z M166.145,198.767c1.416-1.417,3.3-2.197,5.303-2.197s3.887,0.78,5.303,2.197l48.555,48.555
		c-4.629,2.22-8.386,5.977-10.606,10.606l-48.554-48.554C163.22,206.449,163.22,201.691,166.145,198.767z M235,330
		c-4.136,0-7.5-3.364-7.5-7.5v-33.667c2.347,0.833,4.871,1.29,7.5,1.29s5.153-0.458,7.5-1.29V322.5
		C242.5,326.636,239.136,330,235,330z"/>
	<path d="M235,95.246c-95.049,0-172.377,77.328-172.377,172.377C62.623,362.672,139.951,440,235,440
		c40.188,0,79.34-14.193,110.243-39.965c3.181-2.653,3.609-7.382,0.956-10.563c-2.652-3.18-7.382-3.609-10.563-0.956
		C307.424,412.043,271.685,425,235,425c-86.778,0-157.377-70.599-157.377-157.377c0-86.778,70.599-157.377,157.377-157.377
		s157.377,70.599,157.377,157.377c0,36.684-12.957,72.423-36.483,100.637c-2.653,3.181-2.225,7.911,0.956,10.563
		c3.185,2.654,7.911,2.225,10.563-0.957c25.771-30.904,39.964-70.056,39.964-110.243C407.377,172.574,330.049,95.246,235,95.246z"/>
</g>
<g>
</g>
<g>
</g>
<g>
</g>
<g>
</g>
<g>
</g>
<g>
</g>
<g>
</g>
<g>
</g>
<g>
</g>
<g>
</g>
<g>
</g>
<g>
</g>
<g>
</g>
<g>
</g>
<g>
</g>
</svg>
