<?xml version="1.0" encoding="iso-8859-1"?>
<!-- Generator: Adobe Illustrator 19.0.0, SVG Export Plug-In . SVG Version: 6.00 Build 0)  -->
<svg version="1.1" id="Layer_1" xmlns="http://www.w3.org/2000/svg" xmlns:xlink="http://www.w3.org/1999/xlink" x="0px" y="0px"
	 viewBox="0 0 512 512" style="enable-background:new 0 0 512 512;" xml:space="preserve">
<g transform="translate(1 1)">
	<g>
		<g>
			<path d="M455.828,440.379H348.196c27.42-10.952,48.388-26.532,64.374-45.4c65.231-9.903,94.458-63.846,94.458-113.496
				c0-35.246-19.627-64.674-45.028-69.82c0.002-0.267,0.005-0.534,0.007-0.8c0-4.414-1.766-8.828-5.297-12.359
				c-3.531-3.531-7.945-5.297-12.359-5.297H38.283c-4.414,0-8.828,1.766-12.359,5.297c-3.531,3.531-5.297,7.945-5.297,12.359
				c0.683,94.94,17.221,190.936,113.811,229.517H25.924c-12.359,0-22.952,9.71-22.952,22.952c0,10.593,7.062,18.538,19.421,21.186
				l112.11,7.945c2.648,0,5.297,1.766,6.179,4.414c4.414,8.828,13.241,14.124,22.952,14.124h146.538
				c9.71,0,18.538-5.297,22.069-14.124c0.883-2.648,3.531-4.414,6.179-4.414l120.055-7.945h0.883
				c12.359-2.648,19.421-10.593,19.421-21.186C478.779,450.972,469.069,440.379,455.828,440.379z M462.007,230.283
				c15.007,5.297,26.483,26.483,26.483,51.2c0,34.4-15.867,75.85-59.925,90.887c0.738-1.253,1.46-2.516,2.167-3.789
				C455.249,326.054,460.293,274.842,462.007,230.283z M38.283,210.862h406.069c-0.883,119.172-26.483,229.517-203.034,229.517
				S39.166,330.034,38.283,210.862z M457.593,466.862l-118.29,7.945c-8.828,0.883-16.772,6.179-21.186,14.124
				c-1.766,2.648-4.414,4.414-7.062,4.414H163.635c-2.648,0-5.297-1.766-7.062-4.414c-4.414-7.945-12.359-13.241-21.186-14.124
				l-110.345-7.945c-4.414-0.883-4.414-2.648-4.414-3.531c0-2.648,2.648-5.297,5.297-5.297H456.71c2.648,0,5.297,2.648,5.297,5.297
				C462.007,464.214,462.007,465.979,457.593,466.862z"/>
			<path d="M235.138,72.269c-13.241,13.241-20.303,26.483-20.303,40.607s7.062,28.248,20.303,42.372
				c1.766,1.766,3.531,2.648,6.179,2.648s4.414-0.883,6.179-2.648c3.531-3.531,3.531-8.828,0-12.359
				c-9.71-10.593-15.007-20.303-15.007-30.014s5.297-19.421,15.007-28.248C260.738,72.269,267.8,58.145,267.8,44.021
				s-6.179-29.131-20.303-42.372c-3.531-3.531-8.828-3.531-12.359,0c-3.531,3.531-3.531,8.828,0,12.359
				c9.71,10.593,15.007,20.303,15.007,30.014S244.848,63.441,235.138,72.269z"/>
			<path d="M311.938,112.876c0,14.124,7.062,28.248,20.303,42.372c1.766,1.766,3.531,2.648,6.179,2.648
				c1.766,0,4.414-0.883,5.297-2.648c3.531-3.531,3.531-8.828,0-12.359c-9.71-10.593-15.007-20.303-15.007-30.014
				s5.297-19.421,15.007-28.248c14.124-12.359,21.186-26.483,21.186-40.607c0-15.007-6.179-29.131-20.303-42.372
				c-3.531-3.531-8.828-3.531-12.359,0c-3.531,3.531-3.531,8.828,0,12.359c9.71,10.593,15.007,20.303,15.007,30.014
				s-5.297,18.538-15.007,28.248C319,85.51,311.938,98.752,311.938,112.876z"/>
			<path d="M126.559,112.876c0,14.124,7.062,28.248,20.303,42.372c1.766,1.766,3.531,2.648,6.179,2.648
				c1.766,0,4.414-0.883,5.297-2.648c3.531-3.531,3.531-8.828,0-12.359c-9.71-10.593-15.007-20.303-15.007-30.014
				s5.297-19.421,15.007-28.248c14.124-12.359,21.186-26.483,21.186-40.607c0-15.007-6.179-29.131-20.303-42.372
				c-3.531-3.531-8.828-3.531-12.359,0c-3.531,3.531-3.531,8.828,0,12.359c9.71,10.593,15.007,20.303,15.007,30.014
				s-5.297,18.538-15.007,28.248C133.621,85.51,126.559,98.752,126.559,112.876z"/>
			<path d="M190.117,396.241c-62.676-10.593-94.455-45.903-107.697-116.524c-0.883-4.414-6.179-7.945-10.593-7.062
				c-4.414,0.883-7.945,6.179-7.062,10.593c14.124,78.565,52.083,118.29,121.821,130.648c0.883,0,0.883,0,1.766,0
				c4.414,0,7.945-2.648,8.828-7.062C198.062,401.538,194.531,397.124,190.117,396.241z"/>
		</g>
	</g>
</g>
<g>
</g>
<g>
</g>
<g>
</g>
<g>
</g>
<g>
</g>
<g>
</g>
<g>
</g>
<g>
</g>
<g>
</g>
<g>
</g>
<g>
</g>
<g>
</g>
<g>
</g>
<g>
</g>
<g>
</g>
</svg>
