<?xml version="1.0" encoding="utf-8"?>
<!-- Generator: Adobe Illustrator 19.1.0, SVG Export Plug-In . SVG Version: 6.00 Build 0)  -->
<svg version="1.1" id="Layer_1" xmlns="http://www.w3.org/2000/svg" xmlns:xlink="http://www.w3.org/1999/xlink" x="0px" y="0px"
	 viewBox="0 0 64 64" enable-background="new 0 0 64 64" xml:space="preserve">
<g id="Cogwheel">
	<path d="M63.8603745,29.0290489c-0.1474991-1.4941998-1.2881012-2.6953011-2.7705002-2.9209003
		c-1.545002-0.2392998-3.7344017-0.5743008-4.8125-0.7392998c-0.5586014-2.0459003-1.3711014-4.0072994-2.4229012-5.8472004
		l2.8838005-3.9183998c0.8905983-1.2110004,0.8496017-2.8701-0.1083984-4.0444002
		c-1.2764015-1.5258999-2.6884995-2.9345999-4.2031021-4.1904998c-1.1620979-0.9507003-2.8154984-0.9907002-4.0253983-0.1045003
		c-1.2598,0.9229002-3.0440025,2.2343998-3.9229012,2.8809004c-1.8408012-1.0513-3.8017006-1.8638-5.847599-2.4229002
		l-0.732399-4.8085999c-0.2256012-1.4873-1.4288025-2.6303-2.9365997-2.7817001
		c-1.9785004-0.1772-3.9726009-0.1753-5.9355011,0.0073c-1.4932003,0.1509-2.6933994,1.2915-2.9179993,2.7720001
		c-0.2382984,1.5443997-0.5732002,3.7329001-0.7382984,4.8109999c-2.0459023,0.5586004-4.007803,1.3716002-5.8486023,2.4229002
		l-3.9179974-2.8823004c-1.2109003-0.8925996-2.8719997-0.8505998-4.0429001,0.1079001
		c-1.5235004,1.2718997-2.9316998,2.6840997-4.1924,4.2026c-0.9482999,1.1620998-0.9903002,2.8178997-0.1034999,4.0249004
		c0.9218001,1.2602997,2.2343001,3.0443993,2.8807998,3.9237995c-1.0516996,1.839901-1.8641996,3.8013-2.4228001,5.8472004
		l-4.8105998,0.7329006c-1.4863001,0.2270985-2.6289001,1.4301987-2.7803001,2.9361
		c-0.1777,1.9784985-0.1757,3.972599,0.0079,5.9344978c0.1504,1.4932022,1.29,2.6934013,2.7705002,2.9190025
		c1.5438998,0.2402,3.7334001,0.5741997,4.8125,0.7392006c0.5586004,2.0468979,1.3711004,4.0077972,2.4228001,5.8476982
		l-2.8838,3.9179993c-0.8905997,1.2108994-0.8495998,2.8701019,0.1083999,4.0438995
		c1.2743998,1.5244026,2.6866007,2.9336014,4.2032003,4.1914024c1.1630001,0.9482002,2.8172998,0.9911995,4.0253,0.1035004
		c1.2598-0.9219017,3.0439968-2.2344017,3.9228973-2.8808022c1.8407993,1.0517006,3.8027,1.8642006,5.8477001,2.422802
		l0.732399,4.8106003c0.2265034,1.4862976,1.4297009,2.6288986,2.935503,2.7801971
		c0.9765968,0.0879021,1.9560966,0.1319008,2.9335976,0.1319008c1.0049,0,2.0077991-0.0468979,3.0010014-0.139698
		c1.4940987-0.1473999,2.6952972-1.2881012,2.919899-2.7705002c0.2402-1.5439034,0.5741997-3.7334023,0.7392998-4.8125
		c2.044899-0.5586014,4.0067978-1.3711014,5.8466988-2.422802l3.9188995,2.8837013
		c1.2119026,0.892601,2.8711014,0.8486977,4.0438995-0.1082993c1.5245018-1.2745018,2.9336014-2.6865997,4.1905022-4.2022018
		c0.9502029-1.1610985,0.9930992-2.8173981,0.1044998-4.0264015c-0.9219017-1.259697-2.2344017-3.0438995-2.8809013-3.9227982
		c1.0517998-1.839901,1.8642998-3.8008003,2.4229012-5.8476982l4.8094978-0.7324028
		c1.4864006-0.2255974,2.6299019-1.4286995,2.7813034-2.9354973C64.0458755,32.9821472,64.0439758,30.9879494,63.8603745,29.0290489
		z M61.8769722,34.7731476c-0.0585976,0.5869026-0.5068932,1.0596008-1.0908966,1.1483994l-5.4619026,0.8311005
		c-0.4003983,0.0605011-0.7245979,0.3574028-0.8213005,0.7509995c-0.5625,2.3017006-1.4706993,4.4941025-2.6991997,6.5156021
		c-0.2108994,0.3466988-0.1913986,0.7860985,0.0489006,1.1123009c0,0,2.0018997,2.7206993,3.270504,4.452198
		c0.3475952,0.4746017,0.3320007,1.1230011-0.035202,1.5712013c-1.1757965,1.4179993-2.4980011,2.7431984-3.9219017,3.9327011
		c-0.4570007,0.3710976-1.107399,0.3905983-1.5839996,0.0389977l-4.4501991-3.2743988
		c-0.3260994-0.2402-0.7656021-0.2607002-1.1123009-0.0488014c-2.0223961,1.2285004-4.214798,2.1366997-6.5155983,2.6991997
		c-0.3935013,0.0967026-0.690403,0.4209023-0.7510033,0.8213005c0,0-0.5077934,3.3379021-0.8377953,5.4618988
		c-0.0889015,0.5811005-0.5577011,1.0264015-1.1348038,1.0830002c-1.8311005,0.1719017-3.7030983,0.1748009-5.5536995,0.0078011
		c-0.5868988-0.0585976-1.0585995-0.5078011-1.1484966-1.089798l-0.8309994-5.4639015
		c-0.0606041-0.3993988-0.3574028-0.7235985-0.7510014-0.8203011c-2.3008022-0.5625-4.4932022-1.4706993-6.5156021-2.6991997
		c-0.1602001-0.0976982-0.3398991-0.1455002-0.5194988-0.1455002c-0.2090015,0-0.4170017,0.0653992-0.5928001,0.1943016
		c0,0-2.7206974,2.0019989-4.452198,3.2705002c-0.4726,0.3446999-1.1219997,0.3320007-1.5713005-0.035099
		c-1.4179001-1.1758003-2.7430992-2.4981003-3.9326-3.9219017c-0.3729992-0.4570007-0.3895998-1.1083984-0.0389996-1.5839996
		l3.2743998-4.4501991c0.2402-0.3262024,0.2596998-0.7656021,0.0488005-1.1123009
		c-1.2285004-2.0214996-2.1367006-4.2139015-2.6992006-6.5156021c-0.0966997-0.3935966-0.4208994-0.6904984-0.8212996-0.7509995
		c0,0-3.3379002-0.5077972-5.4618998-0.8378983c-0.5791001-0.0889015-1.0254002-0.5586014-1.0830002-1.1348
		c-0.1718999-1.8339005-0.1738999-3.7055016-0.0077999-5.5527c0.0585999-0.5869007,0.5077999-1.0596008,1.0908-1.1484013
		l5.4628992-0.8320999c0.3994007-0.0614986,0.7236004-0.3578987,0.8203001-0.7514
		c0.5625-2.3008003,1.4707003-4.4926987,2.6992006-6.5156994c0.2108994-0.3460999,0.1913996-0.7851009-0.0488005-1.1117992
		c0,0-2.0019999-2.7202015-3.2705002-4.4531012c-0.3476992-0.4730997-0.3310995-1.1220999,0.0351-1.5707998
		c1.1778002-1.4188995,2.5-2.7440996,3.9219007-3.9315996c0.4560995-0.3731003,1.1073999-0.3916006,1.5839996-0.0391006
		l4.4501982,3.2734003c0.3270988,0.2407999,0.7656002,0.2598,1.112299,0.0494003
		c2.0223999-1.2286005,4.2147999-2.1367998,6.5156021-2.7002001c0.3935986-0.0962,0.6903973-0.4200001,0.7510014-0.8204002
		c0,0,0.509697-3.3378,0.8378963-5.4618998c0.0879002-0.5795999,0.5576-1.0258,1.1347008-1.0839
		c1.8359985-0.1704999,3.7079983-0.1718999,5.5538006-0.0068998c0.5868988,0.0585999,1.0594978,0.5072999,1.1483994,1.0913
		l0.8309975,5.4610004c0.0606003,0.4004002,0.357502,0.7245998,0.7510033,0.8207998
		c2.3008003,0.5634003,4.4932022,1.4715996,6.5155983,2.7002001c0.347702,0.2108994,0.7862015,0.1913996,1.1123009-0.0494003
		c0,0,2.7207985-2.0018997,4.4511986-3.2694998c0.4756012-0.3486004,1.1231041-0.3330002,1.5723,0.0346994
		c1.4160004,1.1743002,2.7411995,2.4966002,3.9315987,3.9204006c0.3741035,0.4580002,0.3907013,1.1098995,0.0401001,1.5853996
		l-3.2743988,4.450201c-0.2402992,0.3266983-0.2598,0.7656994-0.0489006,1.1117992
		c1.2285004,2.0230007,2.1366997,4.2148991,2.6991997,6.5156994c0.0967026,0.3935013,0.4209023,0.6899014,0.8204002,0.7514
		c0.0009003,0,3.3388062,0.5093002,5.4628029,0.8383999c0.5810966,0.0883999,1.0263977,0.5571003,1.0830994,1.1353016
		C62.0409737,31.052948,62.0429726,32.9245491,61.8769722,34.7731476z"/>
	<path d="M31.9999752,21.9997482c-5.5137005,0-10,4.4857998-10,10c0,5.5135994,4.4862995,10,10,10s9.9999981-4.4864006,9.9999981-10
		C41.9999733,26.485548,37.5136757,21.9997482,31.9999752,21.9997482z M31.9999752,39.9997482c-4.4111004,0-8-3.5889015-8-8
		c0-4.4111996,3.5888996-8,8-8s7.9999981,3.5888004,7.9999981,8C39.9999733,36.4108467,36.4110756,39.9997482,31.9999752,39.9997482
		z"/>
	<path d="M25.9911747,16.8693485c-0.0722008-0.5473995-0.5615005-0.9355001-1.1219997-0.8607998
		c-0.075201,0.0096989-7.5694008,1.0844002-8.8554974,8.8270988c-0.0908003,0.5449009,0.2772999,1.0601006,0.8223,1.1504002
		c0.0555992,0.0093002,0.1103001,0.0137005,0.164999,0.0137005c0.4804974,0,0.9042988-0.3466988,0.9852982-0.8360004
		c1.0401001-6.2587986,6.8985004-7.1385994,7.1474991-7.1728001C25.6796741,17.9171486,26.0634747,17.4157486,25.9911747,16.8693485
		z"/>
</g>
<g>
</g>
<g>
</g>
<g>
</g>
<g>
</g>
<g>
</g>
<g>
</g>
<g>
</g>
<g>
</g>
<g>
</g>
<g>
</g>
<g>
</g>
<g>
</g>
<g>
</g>
<g>
</g>
<g>
</g>
</svg>
