<?xml version="1.0" encoding="iso-8859-1"?>
<!-- Generator: Adobe Illustrator 18.0.0, SVG Export Plug-In . SVG Version: 6.00 Build 0)  -->
<!DOCTYPE svg PUBLIC "-//W3C//DTD SVG 1.1//EN" "http://www.w3.org/Graphics/SVG/1.1/DTD/svg11.dtd">
<svg version="1.1" id="Capa_1" xmlns="http://www.w3.org/2000/svg" xmlns:xlink="http://www.w3.org/1999/xlink" x="0px" y="0px"
	 viewBox="0 0 53.679 53.679" style="enable-background:new 0 0 53.679 53.679;" xml:space="preserve">
<g>
	<path d="M42.819,10.169l-0.004-0.003c-0.017-0.012-0.038-0.018-0.055-0.029c0.044-0.601-0.221-1.181-0.751-1.52
		c-2.574-1.65-7.554-4.059-12.487-2.083V2.786C29.522,1.25,28.409,0,27.041,0h-2.223c-1.369,0-2.482,1.25-2.482,2.786v4.105
		c-2.224-0.396-7.069-0.788-11.725,1.993c-0.706,0.42-0.996,1.255-0.705,2.028c0.029,0.079,0.083,0.138,0.122,0.209
		c-0.102,0.027-0.208,0.05-0.309,0.077c-0.236,0.063-0.462,0.18-0.658,0.341c-5.508,4.583-8.667,11.117-8.667,17.925
		c0,13.352,11.863,24.214,26.446,24.214s26.446-10.862,26.446-24.214C53.286,21.826,49.471,14.793,42.819,10.169z M22.332,8.928
		c0.491,0.103,0.997-0.021,1.387-0.34c0.393-0.319,0.617-0.794,0.617-1.301V2.786c0-0.442,0.26-0.786,0.482-0.786h2.223
		c0.223,0,0.481,0.344,0.481,0.786v4.249c0,0.57,0.286,1.095,0.766,1.403c0.481,0.31,1.08,0.353,1.602,0.113
		c3.655-1.671,7.521-0.249,9.994,1.124c-2.332-0.03-4.23,0.155-5.684,0.513c-0.658,0.161-1.147,0.697-1.246,1.366
		c-0.101,0.685,0.222,1.354,0.821,1.708c1.454,0.855,2.406,1.815,3.038,2.758c0.455,0.679,0.748,1.349,0.92,1.964
		c-2.191-1.794-4.648-2.453-6.332-2.689c-0.561-0.079-1.037-0.11-1.388-0.122c-0.46-0.015-0.896,0.154-1.226,0.478
		c-0.327,0.321-0.511,0.77-0.504,1.231c0.08,5.136-1.695,8.581-2.727,10.14c-0.985-2.088-1.289-6.58-1.234-10.271
		c0.014-0.852-0.621-1.577-1.479-1.688c-0.257-0.033-0.517-0.049-0.778-0.049c-0.05,0-0.101,0.009-0.15,0.011
		c-0.136,0.003-0.273,0.018-0.41,0.029c-0.206,0.017-0.412,0.037-0.619,0.072c-0.134,0.022-0.268,0.051-0.402,0.08
		c-0.213,0.046-0.425,0.098-0.637,0.159c-0.129,0.037-0.257,0.077-0.385,0.12c-0.219,0.073-0.436,0.152-0.653,0.239
		c-0.122,0.049-0.243,0.097-0.364,0.15c-0.222,0.097-0.442,0.2-0.66,0.309c-0.114,0.056-0.228,0.111-0.341,0.17
		c-0.225,0.118-0.445,0.243-0.665,0.371c-0.103,0.06-0.206,0.116-0.308,0.178c-0.239,0.145-0.471,0.295-0.701,0.447
		c-0.075,0.05-0.153,0.097-0.227,0.147c-0.303,0.205-0.598,0.414-0.883,0.625c0.358-0.649,0.74-1.227,1.129-1.747
		c0.021-0.028,0.041-0.06,0.061-0.087c0.409-0.539,0.824-1.01,1.228-1.419c0.002-0.002,0.004-0.004,0.006-0.006
		c0.533-0.54,1.038-0.961,1.483-1.295c0.064-0.048,0.132-0.103,0.193-0.147c0.036-0.026,0.065-0.044,0.1-0.069
		c0.123-0.087,0.245-0.172,0.353-0.243c0.524-0.343,0.812-0.943,0.747-1.568c-0.063-0.626-0.466-1.158-1.051-1.389
		c-0.051-0.02-0.114-0.03-0.167-0.049c-0.22-0.078-0.455-0.147-0.703-0.208c-0.152-0.038-0.306-0.074-0.468-0.104
		c-0.023-0.004-0.043-0.011-0.067-0.015c-0.015-0.003-0.029,0.001-0.044-0.001c-1.141-0.2-2.487-0.23-4.056-0.062
		C17.176,8.148,20.805,8.612,22.332,8.928z M26.839,51.679c-13.479,0-24.446-9.965-24.446-22.214c0-6.195,2.881-12.153,7.899-16.349
		c2.157-0.574,4.478-1.034,6.829-1.368c0.079,0.014,0.166,0.022,0.242,0.038c0.063,0.013,0.128,0.025,0.188,0.039
		c-0.09,0.065-0.19,0.147-0.285,0.219c-0.104,0.08-0.203,0.152-0.312,0.24c-0.095,0.077-0.196,0.169-0.294,0.252
		c-0.121,0.103-0.238,0.198-0.363,0.311c-0.118,0.107-0.24,0.231-0.361,0.348c-0.111,0.107-0.219,0.205-0.332,0.32
		c-0.202,0.206-0.406,0.433-0.61,0.666c-0.034,0.039-0.067,0.071-0.101,0.11c-0.958,1.114-1.92,2.535-2.699,4.312
		c-0.313,0.717-0.104,1.517,0.521,1.989c0.624,0.472,1.481,0.454,2.084-0.042c1.709-1.407,4.902-3.703,7.521-3.53
		c-0.026,2.813,0.123,8.915,1.795,11.519c0.3,0.467,0.811,0.756,1.363,0.772c0.017,0,0.033,0,0.05,0c0.534,0,1.037-0.255,1.354-0.69
		c1.037-1.425,3.413-5.356,3.405-11.434c1.461,0.096,4.432,0.587,6.794,2.894c0.516,0.503,1.266,0.622,1.907,0.301
		c0.648-0.322,1.009-0.995,0.918-1.716c-0.058-0.455-0.161-0.955-0.324-1.479c-0.007-0.023-0.011-0.044-0.018-0.068
		c-0.154-0.483-0.374-0.988-0.652-1.499c-0.038-0.071-0.066-0.14-0.107-0.211c-0.125-0.217-0.278-0.435-0.43-0.652
		c-0.053-0.076-0.094-0.152-0.15-0.228c-0.13-0.174-0.288-0.347-0.437-0.52c-0.102-0.119-0.189-0.239-0.3-0.357
		c-0.13-0.138-0.29-0.273-0.434-0.409c-0.158-0.15-0.302-0.302-0.477-0.45c-0.151-0.127-0.334-0.249-0.499-0.374
		c-0.199-0.151-0.383-0.305-0.603-0.452c0.5-0.086,1.124-0.164,1.884-0.219c0.03-0.002,0.061-0.004,0.092-0.006
		c0.15-0.01,0.307-0.019,0.467-0.027c0.086-0.004,0.173-0.008,0.262-0.012c0.124-0.005,0.249-0.01,0.379-0.014
		c0.158-0.005,0.321-0.008,0.488-0.01c0.077-0.001,0.153-0.003,0.232-0.004c0.305-0.003,0.628-0.001,0.963,0.004l0.359,0.032
		c0.296,0.04,0.593,0.075,0.89,0.111l0.248,0.029c6.068,4.245,9.547,10.66,9.547,17.611C51.286,41.714,40.319,51.679,26.839,51.679z
		"/>
	<path d="M6.452,30.709c-0.08-0.546-0.579-0.931-1.135-0.844C4.771,29.945,4.393,30.453,4.473,31
		c0.219,1.488,0.709,2.884,1.457,4.146c0.187,0.315,0.52,0.49,0.861,0.49c0.173,0,0.349-0.045,0.509-0.14
		c0.476-0.281,0.632-0.896,0.351-1.37C7.044,33.104,6.629,31.922,6.452,30.709z"/>
	<path d="M5.518,27.676c0.023,0.002,0.047,0.003,0.07,0.003c0.521,0,0.96-0.403,0.996-0.931c0.08-1.139,0.313-2.244,0.694-3.285
		c0.189-0.52-0.077-1.094-0.596-1.283c-0.522-0.188-1.094,0.077-1.283,0.596c-0.444,1.218-0.717,2.507-0.811,3.834
		C4.551,27.16,4.966,27.638,5.518,27.676z"/>
</g>
<g>
</g>
<g>
</g>
<g>
</g>
<g>
</g>
<g>
</g>
<g>
</g>
<g>
</g>
<g>
</g>
<g>
</g>
<g>
</g>
<g>
</g>
<g>
</g>
<g>
</g>
<g>
</g>
<g>
</g>
</svg>
